<svg width="50" height="50" viewBox="0 0 50 50" fill="none" xmlns="http://www.w3.org/2000/svg">
<path fill-rule="evenodd" clip-rule="evenodd" d="M25 50C11.1929 50 0 38.8071 0 25C0 11.1929 11.1929 0 25 0C38.8071 0 50 11.1929 50 25C50 38.8071 38.8071 50 25 50Z" fill="#202047"/>
<path fill-rule="evenodd" clip-rule="evenodd" d="M15.487 15H35.383C36.7508 15 37.87 16.1194 37.87 17.4875V32.4125C37.87 33.7806 36.7508 34.9 35.383 34.9H15.487C14.1192 34.9 13 33.7806 13 32.4125V17.4875C13 16.1194 14.1191 15 15.487 15Z" stroke="white" stroke-width="2" stroke-linecap="round" stroke-linejoin="round"/>
<path d="M37.87 17.4858L25.435 26.1983L13 17.4858" stroke="white" stroke-width="2" stroke-linecap="round" stroke-linejoin="round"/>
</svg>
