<svg width="57" height="59" viewBox="0 0 57 59" fill="none" xmlns="http://www.w3.org/2000/svg">
<g filter="url(#filter0_d_1041_1528)">
<path fill-rule="evenodd" clip-rule="evenodd" d="M25.5 50C11.6929 50 0.5 38.8071 0.5 25V25C0.5 11.1929 11.6929 0 25.5 0V0C39.3071 0 50.5 11.1929 50.5 25V25C50.5 38.8071 39.3071 50 25.5 50V50Z" fill="#202047"/>
</g>
<path fill-rule="evenodd" clip-rule="evenodd" d="M20.8943 28.1578C20.8943 28.5322 21.0141 28.8468 21.2538 29.1164C21.4784 29.3411 21.778 29.4609 22.1674 29.4609C22.5269 29.4609 22.8414 29.3411 23.0961 29.1164L24.7586 27.4089V33.3702C24.7586 33.7296 24.8785 34.0292 25.1031 34.2838C25.3428 34.5385 25.6274 34.6583 25.9868 34.6583C26.3313 34.6583 26.6309 34.5384 26.8855 34.2838C27.1402 34.0292 27.26 33.7296 27.26 33.3702V27.4688L28.9375 29.1314C29.5366 29.5957 30.1507 29.5957 30.7648 29.1314C31.0045 28.9067 31.1243 28.5922 31.1243 28.2027C31.1243 27.8433 31.0045 27.5437 30.7648 27.2741L26.8855 23.4247C26.6459 23.1851 26.3463 23.0653 25.9868 23.0653C25.6274 23.0653 25.3278 23.1851 25.1031 23.4247L21.2388 27.2741C21.0141 27.5137 20.8943 27.7983 20.8943 28.1578H20.8943ZM10.4995 27.2142C10.4995 29.2063 11.1885 30.9287 12.5815 32.3517C13.9744 33.7895 15.6669 34.5534 17.674 34.6433C17.8388 34.6433 17.9286 34.5534 17.9286 34.3887V32.3966C17.9286 32.2169 17.8388 32.112 17.674 32.112C16.3859 32.0521 15.3075 31.5428 14.4088 30.5842C13.5101 29.6256 13.0608 28.5023 13.0608 27.2142C13.0608 25.986 13.4801 24.9076 14.3189 23.9789C15.1577 23.0653 16.2062 22.5261 17.4643 22.3763H18.2582C18.4529 22.3763 18.5577 22.2864 18.5577 22.1067L18.6476 21.2529C18.8123 19.6353 19.5013 18.2723 20.7146 17.1789C21.9278 16.0855 23.3657 15.5313 24.9983 15.5313C26.6159 15.5313 28.0388 16.0855 29.267 17.1789C30.4952 18.2723 31.1842 19.6353 31.349 21.2529L31.4688 22.1067C31.4688 22.2864 31.5587 22.3763 31.7384 22.3763H34.1499C35.4829 22.3763 36.6363 22.8556 37.6098 23.8142C38.5834 24.7728 39.0777 25.9111 39.0777 27.1992C39.0777 28.4873 38.6283 29.6107 37.7296 30.5693C36.831 31.5279 35.7376 32.0371 34.4644 32.097C34.2697 32.097 34.1649 32.1869 34.1649 32.3816V34.3737C34.1649 34.5385 34.2697 34.6283 34.4644 34.6283C35.7675 34.5984 36.9658 34.2389 38.0592 33.5649C39.1526 32.8909 40.0213 31.9922 40.6504 30.8688C41.2794 29.7455 41.594 28.5173 41.594 27.2142C41.594 26.2107 41.3993 25.2521 41.0098 24.3534C40.6204 23.4397 40.0812 22.6609 39.4222 22.0018C38.7631 21.3428 37.9693 20.8185 37.0556 20.4291C36.142 20.0397 35.1834 19.845 34.1798 19.845H33.7005C33.2063 17.8379 32.1578 16.2053 30.5402 14.9172C28.9375 13.6441 27.0952 13 25.0282 13C22.9163 13 21.0291 13.659 19.3965 14.9771C17.7639 16.2952 16.7154 17.9727 16.2511 20.0097C14.5885 20.3992 13.2255 21.2529 12.1621 22.6009C11.0238 23.9639 10.4995 25.4917 10.4995 27.2142L10.4995 27.2142Z" fill="white"/>
<defs>
<filter id="filter0_d_1041_1528" x="-5.5" y="-3" width="62" height="62" filterUnits="userSpaceOnUse" color-interpolation-filters="sRGB">
<feFlood flood-opacity="0" result="BackgroundImageFix"/>
<feColorMatrix in="SourceAlpha" type="matrix" values="0 0 0 0 0 0 0 0 0 0 0 0 0 0 0 0 0 0 127 0" result="hardAlpha"/>
<feOffset dy="3"/>
<feGaussianBlur stdDeviation="3"/>
<feColorMatrix type="matrix" values="0 0 0 0 0.498039 0 0 0 0 0.105882 0 0 0 0 0.372549 0 0 0 0.19 0"/>
<feBlend mode="normal" in2="BackgroundImageFix" result="effect1_dropShadow_1041_1528"/>
<feBlend mode="normal" in="SourceGraphic" in2="effect1_dropShadow_1041_1528" result="shape"/>
</filter>
</defs>
</svg>
