<svg width="50" height="50" viewBox="0 0 50 50" fill="none" xmlns="http://www.w3.org/2000/svg">
<path fill-rule="evenodd" clip-rule="evenodd" d="M25 50C11.1929 50 0 38.8071 0 25C0 11.1929 11.1929 0 25 0C38.8071 0 50 11.1929 50 25C50 38.8071 38.8071 50 25 50Z" fill="#202047"/>
<path fill-rule="evenodd" clip-rule="evenodd" d="M29.1719 16.0239L33.2339 20.0859H29.1719V16.0239ZM36.1887 20.6307C36.1436 20.5226 36.0789 20.4261 35.9974 20.3446L28.9132 13.2604C28.8317 13.1789 28.7352 13.1143 28.6271 13.0691C28.52 13.0239 28.4048 13 28.2861 13H15.8857C15.3968 13 15 13.3968 15 13.8857C15 14.3747 15.3968 14.7715 15.8857 14.7715H27.4004V20.9717C27.4004 21.4606 27.7963 21.8574 28.2861 21.8574H34.4863V36.0293H16.7715V17.4287C16.7715 16.9398 16.3747 16.543 15.8857 16.543C15.3968 16.543 15 16.9398 15 17.4287V36.915C15 37.4048 15.3968 37.8008 15.8857 37.8008H35.3721C35.8619 37.8008 36.2578 37.4048 36.2578 36.915V20.9717C36.2578 20.8539 36.2339 20.7378 36.1887 20.6307V20.6307Z" fill="white"/>
</svg>
