<svg width="57" height="59" viewBox="0 0 57 59" fill="none" xmlns="http://www.w3.org/2000/svg">
<g filter="url(#filter0_d_1041_1512)">
<path fill-rule="evenodd" clip-rule="evenodd" d="M25.5 50C11.6929 50 0.5 38.8071 0.5 25V25C0.5 11.1929 11.6929 0 25.5 0V0C39.3071 0 50.5 11.1929 50.5 25V25C50.5 38.8071 39.3071 50 25.5 50V50Z" fill="#202047"/>
</g>
<path fill-rule="evenodd" clip-rule="evenodd" d="M14.8619 16H36.119C37.4235 16 38.4809 17.0577 38.4809 18.3625V32.5373C38.4809 33.8421 37.4235 34.8998 36.119 34.8998H14.8619C13.5575 34.8998 12.5 33.8421 12.5 32.5373V18.3625C12.5 17.0577 13.5575 16 14.8619 16Z" stroke="white" stroke-width="2" stroke-linecap="round" stroke-linejoin="round"/>
<path d="M12.5 23.0859H38.4809" stroke="white" stroke-width="2" stroke-linecap="round" stroke-linejoin="round"/>
<defs>
<filter id="filter0_d_1041_1512" x="-5.5" y="-3" width="62" height="62" filterUnits="userSpaceOnUse" color-interpolation-filters="sRGB">
<feFlood flood-opacity="0" result="BackgroundImageFix"/>
<feColorMatrix in="SourceAlpha" type="matrix" values="0 0 0 0 0 0 0 0 0 0 0 0 0 0 0 0 0 0 127 0" result="hardAlpha"/>
<feOffset dy="3"/>
<feGaussianBlur stdDeviation="3"/>
<feColorMatrix type="matrix" values="0 0 0 0 0.498039 0 0 0 0 0.105882 0 0 0 0 0.372549 0 0 0 0.19 0"/>
<feBlend mode="normal" in2="BackgroundImageFix" result="effect1_dropShadow_1041_1512"/>
<feBlend mode="normal" in="SourceGraphic" in2="effect1_dropShadow_1041_1512" result="shape"/>
</filter>
</defs>
</svg>
