<svg width="50" height="50" viewBox="0 0 50 50" fill="none" xmlns="http://www.w3.org/2000/svg">
<path fill-rule="evenodd" clip-rule="evenodd" d="M25 50C11.1929 50 0 38.8071 0 25V25C0 11.1929 11.1929 0 25 0V0C38.8071 0 50 11.1929 50 25V25C50 38.8071 38.8071 50 25 50V50Z" fill="#202047"/>
<path fill-rule="evenodd" clip-rule="evenodd" d="M30.8127 18.5968V15.4416H36.0757V18.5968H30.8127ZM13.4412 18.5968V15.4416H18.7042V18.5968H13.4412ZM36.7966 14H30.0919C29.6937 14 29.371 14.3227 29.371 14.7209V19.3178V26.9368C29.371 29.4802 27.3018 31.5493 24.7585 31.5493C22.2151 31.5493 20.1459 29.4802 20.1459 26.9368V19.3178V14.7209C20.1459 14.3227 19.8232 14 19.4251 14H12.7204C12.3222 14 11.9995 14.3227 11.9995 14.7209V19.3178V26.9368C11.9995 28.2186 12.1901 29.4846 12.5657 30.6997C12.6834 31.08 13.087 31.2927 13.4674 31.1753C13.8477 31.0577 14.0607 30.654 13.9431 30.2736C13.6101 29.1967 13.4412 28.074 13.4412 26.9368V20.0385H18.7042V26.9368C18.7042 30.2751 21.42 32.9909 24.7584 32.9909C28.0968 32.9909 30.8126 30.2751 30.8126 26.9368V20.0385H36.0756V26.9368C36.0756 33.1771 30.9987 38.254 24.7584 38.254C20.8154 38.254 17.2163 36.2451 15.131 32.8802C14.9212 32.5418 14.477 32.4375 14.1385 32.6472C13.8001 32.8569 13.6958 33.3012 13.9055 33.6397C15.0301 35.4544 16.6042 36.9721 18.4578 38.0289C20.3704 39.1193 22.5491 39.6958 24.7584 39.6958C31.7937 39.6958 37.5173 33.9722 37.5173 26.9369V19.3178V14.7209C37.5174 14.3227 37.1947 14 36.7966 14L36.7966 14Z" fill="white"/>
</svg>
