<svg width="50" height="50" viewBox="0 0 50 50" fill="none" xmlns="http://www.w3.org/2000/svg">
<path fill-rule="evenodd" clip-rule="evenodd" d="M25 50C11.1929 50 0 38.8071 0 25C0 11.1929 11.1929 0 25 0C38.8071 0 50 11.1929 50 25C50 38.8071 38.8071 50 25 50Z" fill="#202047"/>
<path d="M14.1299 17.644C14.1299 17.0918 13.6822 16.644 13.1299 16.644C12.5776 16.644 12.1299 17.0918 12.1299 17.644H14.1299ZM13.1299 33.1067H12.1299C12.1299 33.4855 12.3439 33.8317 12.6827 34.0011L13.1299 33.1067ZM25.0528 40.1862C25.5468 40.4332 26.1474 40.2329 26.3944 39.739C26.6414 39.245 26.4412 38.6443 25.9472 38.3973L25.0528 40.1862ZM26.5 23.8291C26.5 23.2768 26.0523 22.8291 25.5 22.8291C24.9477 22.8291 24.5 23.2768 24.5 23.8291H26.5ZM24.5 39.2918C24.5 39.844 24.9477 40.2918 25.5 40.2918C26.0523 40.2918 26.5 39.844 26.5 39.2918H24.5ZM25.0528 24.7235C25.5468 24.9705 26.1474 24.7703 26.3944 24.2763C26.6414 23.7823 26.4412 23.1817 25.9472 22.9347L25.0528 24.7235ZM13.5771 16.7496C13.0831 16.5026 12.4824 16.7029 12.2355 17.1968C11.9885 17.6908 12.1887 18.2915 12.6827 18.5385L13.5771 16.7496ZM38.8701 17.644C38.8701 17.0918 38.4224 16.644 37.8701 16.644C37.3178 16.644 36.8701 17.0918 36.8701 17.644H38.8701ZM37.8701 33.1067L38.3173 34.0011C38.6561 33.8317 38.8701 33.4855 38.8701 33.1067H37.8701ZM25.0528 38.3973C24.5588 38.6443 24.3586 39.245 24.6056 39.739C24.8526 40.2329 25.4532 40.4332 25.9472 40.1862L25.0528 38.3973ZM38.3173 18.5385C38.8113 18.2915 39.0115 17.6908 38.7645 17.1968C38.5176 16.7029 37.9169 16.5026 37.4229 16.7496L38.3173 18.5385ZM25.0528 22.9347C24.5588 23.1817 24.3586 23.7823 24.6056 24.2763C24.8526 24.7703 25.4532 24.9705 25.9472 24.7235L25.0528 22.9347ZM37.4229 18.5385C37.9169 18.7855 38.5176 18.5852 38.7645 18.0913C39.0115 17.5973 38.8113 16.9966 38.3173 16.7496L37.4229 18.5385ZM25.5 11.459L25.9472 10.5646C25.6657 10.4238 25.3343 10.4238 25.0528 10.5646L25.5 11.459ZM12.6827 16.7496C12.1887 16.9966 11.9885 17.5973 12.2355 18.0913C12.4824 18.5852 13.0831 18.7855 13.5771 18.5385L12.6827 16.7496ZM12.1299 17.644V33.1067H14.1299V17.644H12.1299ZM12.6827 34.0011L25.0528 40.1862L25.9472 38.3973L13.5771 32.2123L12.6827 34.0011ZM24.5 23.8291V39.2918H26.5V23.8291H24.5ZM25.9472 22.9347L13.5771 16.7496L12.6827 18.5385L25.0528 24.7235L25.9472 22.9347ZM36.8701 17.644V33.1067H38.8701V17.644H36.8701ZM37.4229 32.2123L25.0528 38.3973L25.9472 40.1862L38.3173 34.0011L37.4229 32.2123ZM37.4229 16.7496L25.0528 22.9347L25.9472 24.7235L38.3173 18.5385L37.4229 16.7496ZM38.3173 16.7496L25.9472 10.5646L25.0528 12.3534L37.4229 18.5385L38.3173 16.7496ZM25.0528 10.5646L12.6827 16.7496L13.5771 18.5385L25.9472 12.3534L25.0528 10.5646Z" fill="white"/>
</svg>
